PathFileType	4	(x/y/z)	S10_P20_T26
DataRate	CameraRate	NumFrames	NumMarkers	Units	OrigDataRate	OrigDataStartFrame	OrigNumFrames
240	240	7	51	mm	240	156	414
Frame#	Time	Sternum			R.Acromium			L.Acromium			Top.Head			R.ASIS			L.ASIS			R.PSIS			L.PSIS			R.Great.Tro			L.Great.Tro			R.Iliac.Crest			L.Iliac.Crest			V.Sacral			R.Thigh.Upper.Post			R.Thigh.Lower.Ant			R.Thigh.Lower.Post			R.Thigh.Upper.Ant			R.Knee.Lat			R.Knee.Med			R.Shank.Upper.Post			R.Shank.Lower.Ant			R.Shank.Lower.Post			R.Shank.Upper.Ant			R.Ankle.Lat			R.Ankle.Med			R.Heel.Upper			R.Heel.Med			R.Heel.Lat			R.Toe.Lat			R.Toe.Med			R.Toe.Tip			L.Thigh.Upper.Post			L.Thigh.Lower.Ant			L.Thigh.Lower.Post			L.Thigh.Upper.Ant			L.Knee.Lat			L.Knee.Med			L.Shank.Upper.Post			L.Shank.Lower.Ant			L.Shank.Lower.Post			L.Shank.Upper.Ant			L.Ankle.Lat			L.Ankle.Med			L.Heel.Upper			L.Heel.Med			L.Heel.Lat			L.Toe.Lat			L.Toe.Med			L.Toe.Tip			Cervical.Spine			Back			
		X1	Y1	Z1	X2	Y2	Z2	X3	Y3	Z3	X4	Y4	Z4	X5	Y5	Z5	X6	Y6	Z6	X7	Y7	Z7	X8	Y8	Z8	X9	Y9	Z9	X10	Y10	Z10	X11	Y11	Z11	X12	Y12	Z12	X13	Y13	Z13	X14	Y14	Z14	X15	Y15	Z15	X16	Y16	Z16	X17	Y17	Z17	X18	Y18	Z18	X19	Y19	Z19	X20	Y20	Z20	X21	Y21	Z21	X22	Y22	Z22	X23	Y23	Z23	X24	Y24	Z24	X25	Y25	Z25	X26	Y26	Z26	X27	Y27	Z27	X28	Y28	Z28	X29	Y29	Z29	X30	Y30	Z30	X31	Y31	Z31	X32	Y32	Z32	X33	Y33	Z33	X34	Y34	Z34	X35	Y35	Z35	X36	Y36	Z36	X37	Y37	Z37	X38	Y38	Z38	X39	Y39	Z39	X40	Y40	Z40	X41	Y41	Z41	X42	Y42	Z42	X43	Y43	Z43	X44	Y44	Z44	X45	Y45	Z45	X46	Y46	Z46	X47	Y47	Z47	X48	Y48	Z48	X49	Y49	Z49	X50	Y50	Z50	X51	Y51	Z51	

156	0.64583	-499.04	1268.2	316.98	-633.81	1418.2	466.68	-613.26	1459.1	169.62	-625.96	1746	341.9	-552.98	1007	417.62	-557.06	1008.2	187.11	-756.43	1018.7	334.44	-751.37	1022.3	254.16	-613.96	932.95	494.99	-623.87	938.71	134.58	-649.39	1085.4	462.33	-622.82	1081.6	160.5	-775.83	986.16	299.82	-541.91	727.51	484.67	-472.07	667.31	439.36	-526.14	639.72	472.7	-487.18	757.27	445.64	-500.08	518.03	427.23	-518.53	525.19	301.58	-560.02	289.72	432.27	-496.42	228.39	408.74	-558.01	215.53	424.94	-492.06	305.61	415.21	-543.59	110.74	400.65	-540.52	121.99	322.68	-610.56	65.76	358.38	-601.01	37.215	331.7	-602.71	41.449	392.79	-428.28	40.601	432.1	-402.95	44.059	320.68	-343.97	60.026	361.58	-674.93	658.55	148.46	-601.17	575.89	152.82	-673.14	564.4	166.44	-596.76	665.12	134.42	-651.55	484.86	161.39	-609.3	464.35	285.38	-834.78	386.01	167.89	-856.88	276.99	170.76	-891.93	332.04	175	-800.68	330.7	163.8	-963.83	225.87	181.91	-942.92	220.63	266.07	-1008.5	269.11	224.73	-1028.8	250.99	262.88	-1038.7	250.17	199.27	-989.31	81.264	173.04	-954	71.62	276.03	-925.58	36.916	234.12	-702.87	1486.9	322.58	-784.53	1279.3	295.5
157	0.65	-493.58	1268.9	316.66	-627.65	1419	466.92	-608.53	1459.6	169.66	-620.54	1746.7	341.88	-547.26	1007.4	417.82	-552.1	1008.7	187.26	-750.97	1019.3	335.28	-746.21	1022.8	254.98	-608.32	933.39	495.48	-618.87	939.09	135.03	-643.45	1085.9	462.85	-617.9	1082	160.81	-770.53	986.67	300.77	-537.73	727.54	485.13	-468.12	666.88	440.03	-522.48	639.65	473.17	-482.64	756.96	446.32	-497.18	517.74	427.61	-515.26	525.07	302.03	-558.48	289.84	432.41	-495.28	228.12	408.9	-556.98	215.65	425.01	-490.41	305.26	415.37	-543.25	110.84	400.66	-539.98	122.11	322.66	-610.47	65.833	358.37	-600.96	37.292	331.69	-602.67	41.515	392.78	-428.22	40.611	432.13	-402.85	43.969	320.64	-343.86	59.769	361.59	-667.1	658.38	148.54	-592.42	576.48	152.19	-664.21	564.22	166.33	-589.06	665.82	133.93	-641.36	485.29	160.72	-598.35	464.54	284.71	-824.7	388.16	167.52	-847.85	279.35	170.12	-882.46	334.73	174.57	-791.17	332.54	163.25	-955.05	229.17	181.32	-934.24	223.72	265.68	-998.75	273.2	224.16	-1019.4	255.53	262.44	-1029.4	254.76	198.79	-983.18	84.211	172.68	-947.41	73.959	275.5	-920.32	37.306	233.38	-697.41	1487.6	323.14	-779.13	1279.9	296.63
158	0.65417	-488.15	1269.5	316.28	-621.48	1419.9	467.14	-603.83	1460.1	169.68	-615.15	1747.4	341.84	-541.56	1007.8	417.98	-547.18	1009.2	187.38	-745.54	1019.8	336.12	-741.09	1023.3	255.81	-602.73	933.82	495.94	-613.92	939.5	135.46	-637.54	1086.4	463.35	-613.06	1082.4	161.09	-765.26	987.18	301.72	-533.67	727.56	485.56	-464.29	666.42	440.69	-518.95	639.58	473.62	-478.2	756.63	447	-494.4	517.46	427.99	-512.2	524.94	302.46	-557.01	289.97	432.55	-494.19	227.87	409.05	-555.99	215.77	425.08	-488.83	304.93	415.53	-542.92	110.94	400.67	-539.46	122.23	322.64	-610.38	65.906	358.35	-600.92	37.368	331.69	-602.63	41.582	392.78	-428.17	40.614	432.15	-402.76	43.884	320.61	-343.75	59.525	361.61	-659.27	658.3	148.62	-583.7	577.18	151.58	-655.3	564.15	166.23	-581.39	666.6	133.45	-631.19	485.84	160.07	-587.52	464.92	284.1	-814.58	390.29	167.15	-838.7	281.69	169.52	-872.9	337.38	174.16	-781.59	334.39	162.71	-946.15	232.36	180.79	-925.41	226.73	265.3	-989.06	277.04	223.65	-1009.9	259.73	262.04	-1020.1	259.04	198.35	-976.53	87.126	172.26	-940.39	76.29	274.93	-914.48	37.875	232.59	-691.96	1488.2	323.69	-773.76	1280.5	297.77
159	0.65833	-482.75	1270.2	315.87	-615.3	1420.7	467.34	-599.16	1460.6	169.68	-609.77	1748.1	341.78	-535.88	1008.2	418.12	-542.29	1009.6	187.48	-740.13	1020.4	336.97	-736.01	1023.8	256.63	-597.2	934.24	496.38	-609.04	939.92	135.87	-631.65	1086.9	463.83	-608.3	1082.9	161.34	-760.03	987.72	302.68	-529.72	727.57	485.96	-460.57	665.94	441.33	-515.53	639.49	474.04	-473.85	756.28	447.67	-491.72	517.19	428.35	-509.36	524.79	302.86	-555.61	290.1	432.67	-493.16	227.64	409.2	-555.06	215.89	425.14	-487.33	304.61	415.68	-542.6	111.04	400.69	-538.97	122.36	322.62	-610.29	65.981	358.33	-600.88	37.443	331.68	-602.59	41.651	392.77	-428.12	40.611	432.17	-402.67	43.802	320.58	-343.65	59.292	361.62	-651.45	658.31	148.71	-575	577.98	150.97	-646.39	564.2	166.14	-573.73	667.46	132.97	-621.02	486.51	159.43	-576.82	465.47	283.54	-804.44	392.39	166.78	-829.43	283.98	168.96	-863.23	339.95	173.79	-771.94	336.23	162.2	-937.13	235.42	180.32	-916.42	229.61	264.95	-979.38	280.6	223.23	-1000.5	263.58	261.69	-1010.8	263	197.96	-969.33	89.985	171.77	-932.95	78.592	274.33	-908.02	38.621	231.77	-686.52	1488.9	324.25	-768.4	1281.1	298.93
160	0.6625	-477.38	1270.8	315.42	-609.11	1421.6	467.53	-594.53	1461.2	169.67	-604.42	1748.8	341.71	-530.23	1008.6	418.23	-537.43	1010.1	187.56	-734.76	1021	337.82	-730.95	1024.3	257.46	-591.73	934.67	496.79	-604.2	940.38	136.27	-625.8	1087.5	464.29	-603.6	1083.3	161.57	-754.82	988.27	303.63	-525.87	727.57	486.34	-456.95	665.45	441.96	-512.22	639.4	474.43	-469.59	755.91	448.32	-489.12	516.93	428.68	-506.73	524.65	303.24	-554.27	290.23	432.78	-492.17	227.43	409.34	-554.16	216.03	425.18	-485.89	304.32	415.84	-542.29	111.14	400.7	-538.5	122.49	322.61	-610.2	66.057	358.31	-600.84	37.519	331.68	-602.56	41.723	392.76	-428.07	40.601	432.19	-402.58	43.721	320.56	-343.55	59.069	361.64	-643.61	658.43	148.79	-566.32	578.89	150.39	-637.48	564.35	166.07	-566.08	668.4	132.5	-610.87	487.29	158.8	-566.24	466.19	283.03	-794.28	394.45	166.41	-820.05	286.21	168.44	-853.47	342.43	173.45	-762.22	338.07	161.72	-928	238.34	179.92	-907.28	232.36	264.62	-969.73	283.89	222.89	-991.05	267.07	261.38	-1001.3	266.62	197.61	-961.59	92.764	171.22	-925.07	80.842	273.69	-900.92	39.534	230.9	-681.08	1489.6	324.82	-763.07	1281.8	300.11
161	0.66667	-472.04	1271.4	314.93	-602.92	1422.4	467.7	-589.93	1461.7	169.64	-599.08	1749.5	341.63	-524.61	1009	418.32	-532.6	1010.6	187.62	-729.41	1021.6	338.68	-725.91	1024.8	258.29	-586.32	935.1	497.18	-599.41	940.87	136.65	-619.98	1088	464.73	-598.97	1083.7	161.78	-749.63	988.84	304.58	-522.11	727.58	486.69	-453.42	664.95	442.57	-509	639.32	474.78	-465.41	755.53	448.95	-486.62	516.69	428.99	-504.3	524.51	303.59	-552.99	290.37	432.88	-491.23	227.23	409.48	-553.31	216.16	425.22	-484.52	304.05	415.98	-541.99	111.25	400.71	-538.06	122.63	322.59	-610.1	66.134	358.28	-600.8	37.594	331.67	-602.52	41.799	392.75	-428.03	40.587	432.2	-402.49	43.641	320.53	-343.45	58.853	361.65	-635.77	658.64	148.86	-557.65	579.89	149.82	-628.57	564.61	166	-558.44	669.43	132.04	-600.74	488.18	158.19	-555.78	467.08	282.57	-784.12	396.45	166.05	-810.55	288.36	167.96	-843.62	344.81	173.14	-752.44	339.88	161.25	-918.76	241.08	179.58	-897.98	234.95	264.3	-960.1	286.89	222.63	-981.58	270.18	261.11	-991.85	269.88	197.32	-953.3	95.439	170.6	-916.77	83.019	273.02	-893.17	40.596	229.99	-675.64	1490.4	325.38	-757.76	1282.4	301.29
162	0.67083	-466.72	1271.9	314.4	-596.71	1423.2	467.85	-585.36	1462.2	169.6	-593.76	1750.3	341.53	-519	1009.4	418.39	-527.8	1011.1	187.67	-724.09	1022.2	339.53	-720.9	1025.4	259.11	-580.97	935.54	497.54	-594.67	941.4	137.01	-614.21	1088.6	465.16	-594.39	1084.2	161.98	-744.47	989.44	305.53	-518.43	727.59	487	-449.98	664.45	443.14	-505.87	639.24	475.1	-461.32	755.14	449.54	-484.19	516.46	429.27	-502.05	524.38	303.9	-551.77	290.51	432.96	-490.34	227.05	409.6	-552.5	216.31	425.24	-483.21	303.8	416.12	-541.7	111.35	400.71	-537.64	122.77	322.57	-610.01	66.213	358.24	-600.76	37.668	331.65	-602.49	41.88	392.73	-427.99	40.568	432.22	-402.41	43.561	320.51	-343.36	58.644	361.66	-627.91	658.94	148.92	-548.99	580.99	149.27	-619.65	564.98	165.94	-550.81	670.54	131.58	-590.62	489.18	157.59	-545.43	468.12	282.16	-773.95	398.4	165.71	-800.94	290.42	167.52	-833.7	347.07	172.86	-742.6	341.66	160.82	-909.4	243.65	179.3	-888.53	237.37	264	-950.49	289.6	222.45	-972.1	272.9	260.89	-982.32	272.8	197.07	-944.47	97.988	169.92	-908.04	85.1	272.31	-884.77	41.781	229.04	-670.21	1491.1	325.95	-752.48	1283.1	302.49
